<svg xmlns="http://www.w3.org/2000/svg" viewBox="0 0 695.25 150.58"><defs><style>.cls-1{fill:#d44f28;}.cls-2{fill:#5d5d5d;}</style></defs><g id="Layer_2" data-name="Layer 2"><g id="Layer_1-2" data-name="Layer 1"><path class="cls-1" d="M178.33,85.34V44h9V77.35h15.74v8Z"/><path class="cls-1" d="M236.16,85.34l-3-9.83H219.41l-3,9.83h-9.11L221,44h11.13l13.43,41.32ZM226.4,52.19h-.3l-4.56,15.69H231Z"/><path class="cls-1" d="M251.26,85.34V44h9V77.35H276v8Z"/><path class="cls-1" d="M309.09,85.34l-3-9.83H292.34l-3,9.83h-9.12L293.88,44H305l13.44,41.32Zm-9.77-33.15H299l-4.55,15.69h9.47Z"/><path class="cls-1" d="M347.56,44V73.38C347.56,81,342.47,86,334,86c-8.17,0-12.49-4.68-13.67-11.6l8.4-1.66c.65,3.49,2.37,5.39,5.15,5.39,2.6,0,4.74-1.6,4.74-5.15V51.24H326V44Z"/><path class="cls-1" d="M368.81,65c0-14,7.16-21.67,18.29-21.67,7.58,0,12.43,3.08,15.45,9.71l-7.75,4c-1.07-3.43-3.26-5.74-7.7-5.74-5.27,0-8.76,3.55-8.76,10.07V68c0,6.52,3.49,10.07,8.76,10.07,4.44,0,7-2.79,8.23-6.16l7.34,4.26c-3.08,6.28-8,9.89-15.57,9.89C376,86.05,368.81,78.94,368.81,65Z"/><path class="cls-1" d="M408.94,85.34V44h19.54c7.69,0,12.54,5.39,12.54,13.2s-4.85,13.2-12.54,13.2H417.94V85.34Zm9-22.73h9.47c2.66,0,4.32-1.42,4.32-4.09v-2.6c0-2.66-1.66-4.08-4.32-4.08h-9.47Z"/><path class="cls-1" d="M468.9,85.34l-3-9.83H452.15l-3,9.83h-9.11L453.69,44h11.13l13.43,41.32Zm-9.76-33.15h-.3l-4.56,15.69h9.47Z"/><path class="cls-1" d="M524.19,78.77h-.3c-.59,4.14-4.38,7.28-10.59,7.28-9.47,0-16.93-7.34-16.93-21.19s7.52-21.55,18.7-21.55c7.34,0,12.85,3.26,15.93,9.59l-7.34,4.2a8.56,8.56,0,0,0-8.59-5.8c-5.56,0-9.17,3.2-9.17,10.07V68c0,6.87,3.61,10.07,9.17,10.07,4.5,0,8.11-2.13,8.11-6.16V69.83h-7.69V62.31h16.27v23h-7.57Z"/><path class="cls-1" d="M549.52,85.34h-9V44h19.59c7.63,0,12.49,5.33,12.49,13.2,0,5.57-2.49,10-7.52,11.9l8.11,16.22h-10L556,70.18h-6.46ZM559,62.61c2.67,0,4.33-1.42,4.33-4.09v-2.6c0-2.66-1.66-4.08-4.33-4.08h-9.47V62.61Z"/><path class="cls-1" d="M578.23,64.68c0-14,7.22-21.37,18.17-21.37s18.18,7.34,18.18,21.37-7.23,21.37-18.18,21.37S578.23,78.71,578.23,64.68Zm26.82,3.08V61.6c0-6.57-3.26-10.3-8.65-10.3s-8.64,3.73-8.64,10.3v6.16c0,6.57,3.26,10.3,8.64,10.3S605.05,74.33,605.05,67.76Z"/><path class="cls-1" d="M630.62,44V69.36c0,5.8,2.13,8.7,7.45,8.7s7.46-2.9,7.46-8.7V44h8.76V68.41c0,12.19-4.38,17.64-16.22,17.64s-16.21-5.45-16.21-17.64V44Z"/><path class="cls-1" d="M663.17,85.34V44H682.7c7.7,0,12.55,5.39,12.55,13.2s-4.85,13.2-12.55,13.2H672.17V85.34Zm9-22.73h9.47c2.66,0,4.32-1.42,4.32-4.09v-2.6c0-2.66-1.66-4.08-4.32-4.08h-9.47Z"/><path class="cls-2" d="M292.76,116.2a7,7,0,0,1,7.29-7,6.79,6.79,0,0,1,5.22,2.14L304,112.55a5.1,5.1,0,0,0-3.87-1.63,5.28,5.28,0,1,0,0,10.56,5.12,5.12,0,0,0,3.87-1.65l1.27,1.24a6.82,6.82,0,0,1-5.24,2.16A7,7,0,0,1,292.76,116.2Z"/><path class="cls-2" d="M316.75,118.5H308.3a3.53,3.53,0,0,0,3.77,3,3.88,3.88,0,0,0,3-1.26l1,1.22a5.24,5.24,0,0,1-4.11,1.69c-3.36,0-5.59-2.22-5.59-5.32a5.1,5.1,0,0,1,5.22-5.3,5,5,0,0,1,5.15,5.36C316.79,118.08,316.77,118.32,316.75,118.5Zm-8.45-1.36H315a3.36,3.36,0,0,0-6.68,0Z"/><path class="cls-2" d="M325,112.57v1.82a3.32,3.32,0,0,0-.43,0c-2,0-3.28,1.24-3.28,3.52v5.18H319.4V112.66h1.81v1.75A4,4,0,0,1,325,112.57Z"/><path class="cls-2" d="M333.6,122.46a3.5,3.5,0,0,1-2.28.73,3,3,0,0,1-3.29-3.26v-5.71h-1.77v-1.56H328v-2.27h1.88v2.27h3v1.56h-3v5.63a1.54,1.54,0,0,0,1.63,1.75,2.39,2.39,0,0,0,1.47-.49Z"/><path class="cls-2" d="M335.55,109.44a1.24,1.24,0,0,1,1.28-1.23,1.23,1.23,0,1,1-1.28,1.23Zm.33,3.22h1.89v10.41h-1.89Z"/><path class="cls-2" d="M345.07,108.38a3.55,3.55,0,0,1,2.13.61l-.57,1.44a2.44,2.44,0,0,0-1.46-.49c-1.12,0-1.69.62-1.69,1.82v.9h3v1.56h-3v8.85h-1.88v-8.85h-1.77v-1.56h1.77v-.92A3.13,3.13,0,0,1,345.07,108.38Zm4.46,1.06a1.24,1.24,0,0,1,1.28-1.23,1.23,1.23,0,1,1-1.28,1.23Zm.34,3.22h1.88v10.41h-1.88Z"/><path class="cls-2" d="M364.72,118.5h-8.45a3.53,3.53,0,0,0,3.77,3,3.88,3.88,0,0,0,3-1.26l1,1.22a5.22,5.22,0,0,1-4.1,1.69c-3.36,0-5.6-2.22-5.6-5.32a5.1,5.1,0,0,1,5.22-5.3,5,5,0,0,1,5.15,5.36C364.76,118.08,364.74,118.32,364.72,118.5Zm-8.45-1.36H363a3.36,3.36,0,0,0-6.68,0Z"/><path class="cls-2" d="M377.19,108.5v14.57h-1.8v-1.65a4.41,4.41,0,0,1-3.72,1.77,5.31,5.31,0,0,1,0-10.62,4.44,4.44,0,0,1,3.64,1.67V108.5Zm-1.86,9.37a3.51,3.51,0,1,0-3.5,3.67A3.43,3.43,0,0,0,375.33,117.87Z"/><path class="cls-2" d="M397.43,114.12c0,3-2.16,4.79-5.74,4.79h-3.4v4.16h-2V109.33h5.36C395.27,109.33,397.43,111.13,397.43,114.12Zm-2,0c0-2-1.31-3.09-3.83-3.09h-3.34v6.17h3.34C394.15,117.2,395.46,116.08,395.46,114.12Z"/><path class="cls-2" d="M409.94,112.66v10.41h-1.79V121.5a4.22,4.22,0,0,1-3.53,1.69c-2.69,0-4.48-1.47-4.48-4.54v-6H402v5.78c0,2,1,3.06,2.8,3.06,2,0,3.22-1.22,3.22-3.45v-5.39Z"/><path class="cls-2" d="M424.32,117.87a5.07,5.07,0,0,1-5.26,5.32,4.41,4.41,0,0,1-3.72-1.77v1.65h-1.8V108.5h1.88v5.74a4.44,4.44,0,0,1,3.64-1.67A5.05,5.05,0,0,1,424.32,117.87Zm-1.91,0a3.51,3.51,0,1,0-3.51,3.67A3.42,3.42,0,0,0,422.41,117.87Z"/><path class="cls-2" d="M426.94,108.5h1.88v14.57h-1.88Z"/><path class="cls-2" d="M432.08,109.44a1.24,1.24,0,0,1,1.28-1.23,1.23,1.23,0,1,1-1.28,1.23Zm.34,3.22h1.88v10.41h-1.88Z"/><path class="cls-2" d="M436.93,117.87a5.2,5.2,0,0,1,5.5-5.3,4.62,4.62,0,0,1,4.24,2.22l-1.43.92a3.25,3.25,0,0,0-2.83-1.49,3.66,3.66,0,0,0,0,7.32,3.25,3.25,0,0,0,2.83-1.49l1.43.9a4.63,4.63,0,0,1-4.24,2.24A5.22,5.22,0,0,1,436.93,117.87Z"/><path class="cls-2" d="M463.43,119.64h-7.3l-1.52,3.43h-2l6.23-13.74h1.94L467,123.07h-2.07Zm-.69-1.57-3-6.74-3,6.74Z"/><path class="cls-2" d="M467.72,117.87a5.2,5.2,0,0,1,5.5-5.3,4.64,4.64,0,0,1,4.24,2.22l-1.43.92a3.25,3.25,0,0,0-2.83-1.49,3.66,3.66,0,0,0,0,7.32,3.25,3.25,0,0,0,2.83-1.49l1.43.9a4.65,4.65,0,0,1-4.24,2.24A5.22,5.22,0,0,1,467.72,117.87Z"/><path class="cls-2" d="M478.78,117.87a5.2,5.2,0,0,1,5.5-5.3,4.64,4.64,0,0,1,4.24,2.22l-1.43.92a3.25,3.25,0,0,0-2.83-1.49,3.66,3.66,0,0,0,0,7.32,3.25,3.25,0,0,0,2.83-1.49l1.43.9a4.65,4.65,0,0,1-4.24,2.24A5.22,5.22,0,0,1,478.78,117.87Z"/><path class="cls-2" d="M489.84,117.87a5.41,5.41,0,1,1,5.42,5.32A5.18,5.18,0,0,1,489.84,117.87Zm8.91,0a3.51,3.51,0,1,0-3.49,3.67A3.41,3.41,0,0,0,498.75,117.87Z"/><path class="cls-2" d="M513,112.66v10.41h-1.79V121.5a4.24,4.24,0,0,1-3.54,1.69c-2.69,0-4.47-1.47-4.47-4.54v-6h1.88v5.78c0,2,1,3.06,2.81,3.06,2,0,3.22-1.22,3.22-3.45v-5.39Z"/><path class="cls-2" d="M526.45,117.08v6h-1.88V117.3c0-2-1-3-2.81-3-2,0-3.3,1.19-3.3,3.45v5.36h-1.89V112.66h1.81v1.58a4.47,4.47,0,0,1,3.75-1.67C524.67,112.57,526.45,114,526.45,117.08Z"/><path class="cls-2" d="M535.8,122.46a3.49,3.49,0,0,1-2.27.73,3,3,0,0,1-3.3-3.26v-5.71h-1.77v-1.56h1.77v-2.27h1.88v2.27h3v1.56h-3v5.63a1.54,1.54,0,0,0,1.63,1.75,2.39,2.39,0,0,0,1.47-.49Z"/><path class="cls-2" d="M546.33,116.79v6.28h-1.78V121.7a3.88,3.88,0,0,1-3.42,1.49c-2.36,0-3.85-1.26-3.85-3.06s1.08-3,4.18-3h3v-.37c0-1.59-.93-2.51-2.79-2.51a5.25,5.25,0,0,0-3.3,1.12l-.79-1.42a7,7,0,0,1,4.31-1.33C544.72,112.57,546.33,113.94,546.33,116.79Zm-1.88,3.1v-1.45h-2.91c-1.86,0-2.39.72-2.39,1.61,0,1,.86,1.69,2.29,1.69A3,3,0,0,0,544.45,119.89Z"/><path class="cls-2" d="M559.71,117.08v6h-1.89V117.3c0-2-1-3-2.8-3-2,0-3.3,1.19-3.3,3.45v5.36h-1.89V112.66h1.81v1.58a4.45,4.45,0,0,1,3.75-1.67C557.92,112.57,559.71,114,559.71,117.08Z"/><path class="cls-2" d="M569.06,122.46a3.49,3.49,0,0,1-2.27.73,3,3,0,0,1-3.3-3.26v-5.71h-1.77v-1.56h1.77v-2.27h1.88v2.27h3v1.56h-3v5.63A1.54,1.54,0,0,0,567,121.6a2.39,2.39,0,0,0,1.47-.49Z"/><path class="cls-2" d="M570,122l.78-1.49a6.7,6.7,0,0,0,3.65,1.08c1.75,0,2.48-.53,2.48-1.41,0-2.34-6.58-.32-6.58-4.46,0-1.87,1.67-3.12,4.34-3.12a7.54,7.54,0,0,1,3.79.94l-.8,1.49a5.46,5.46,0,0,0-3-.82c-1.65,0-2.45.61-2.45,1.43,0,2.46,6.6.45,6.6,4.5,0,1.88-1.73,3.08-4.5,3.08A7.47,7.47,0,0,1,570,122Z"/><path class="cls-2" d="M257.39,143.21h-7.31l-1.51,3.44h-2l6.22-13.75h1.95L261,146.65H258.9Zm-.69-1.57-3-6.74-3,6.74Z"/><path class="cls-2" d="M261.68,141.44a5.19,5.19,0,0,1,5.49-5.3,4.66,4.66,0,0,1,4.25,2.22l-1.44.92a3.25,3.25,0,0,0-2.83-1.49,3.67,3.67,0,0,0,0,7.33,3.26,3.26,0,0,0,2.83-1.5l1.44.91a4.68,4.68,0,0,1-4.25,2.24A5.21,5.21,0,0,1,261.68,141.44Z"/><path class="cls-2" d="M272.74,141.44a5.19,5.19,0,0,1,5.49-5.3,4.66,4.66,0,0,1,4.25,2.22l-1.44.92a3.24,3.24,0,0,0-2.83-1.49,3.67,3.67,0,0,0,0,7.33,3.25,3.25,0,0,0,2.83-1.5l1.44.91a4.68,4.68,0,0,1-4.25,2.24A5.21,5.21,0,0,1,272.74,141.44Z"/><path class="cls-2" d="M283.8,141.44a5.41,5.41,0,1,1,5.42,5.33A5.17,5.17,0,0,1,283.8,141.44Zm8.91,0a3.51,3.51,0,1,0-7,0,3.51,3.51,0,1,0,7,0Z"/><path class="cls-2" d="M306.93,136.24v10.41h-1.78v-1.57a4.25,4.25,0,0,1-3.54,1.69c-2.69,0-4.48-1.48-4.48-4.54v-6H299V142c0,2.05,1,3.07,2.81,3.07,2,0,3.22-1.22,3.22-3.46v-5.38Z"/><path class="cls-2" d="M320.41,140.66v6h-1.89v-5.78c0-2-1-3-2.8-3-2,0-3.3,1.2-3.3,3.46v5.36h-1.89V136.24h1.81v1.57a4.45,4.45,0,0,1,3.75-1.67C318.62,136.14,320.41,137.59,320.41,140.66Z"/><path class="cls-2" d="M329.76,146a3.56,3.56,0,0,1-2.28.73,3,3,0,0,1-3.29-3.26v-5.72h-1.77v-1.55h1.77V134h1.88v2.28h3v1.55h-3v5.64a1.53,1.53,0,0,0,1.63,1.74,2.32,2.32,0,0,0,1.47-.49Z"/><path class="cls-2" d="M331.71,133a1.24,1.24,0,0,1,1.28-1.24,1.22,1.22,0,0,1,1.27,1.2,1.28,1.28,0,0,1-2.55,0Zm.33,3.22h1.89v10.41H332Z"/><path class="cls-2" d="M347.4,140.66v6h-1.88v-5.78c0-2-1-3-2.81-3-2,0-3.3,1.2-3.3,3.46v5.36h-1.89V136.24h1.81v1.57a4.47,4.47,0,0,1,3.75-1.67C345.61,136.14,347.4,137.59,347.4,140.66Z"/><path class="cls-2" d="M360.92,136.24v9c0,3.68-1.87,5.35-5.4,5.35a7.71,7.71,0,0,1-5-1.56l.9-1.45a6.34,6.34,0,0,0,4,1.36c2.45,0,3.57-1.14,3.57-3.5v-.82a4.76,4.76,0,0,1-3.75,1.61,5,5,0,1,1,0-10.08,4.75,4.75,0,0,1,3.85,1.71v-1.61Zm-1.85,4.93a3.59,3.59,0,0,0-7.17,0,3.59,3.59,0,0,0,7.17,0Z"/><path class="cls-2" d="M370.07,132.9h2v13.75h-2Z"/><path class="cls-2" d="M384.18,134.61h-4.71V132.9h11.37v1.71h-4.72v12h-1.94Z"/><path class="cls-2" d="M400.4,140.36v6.29h-1.78v-1.38a3.86,3.86,0,0,1-3.42,1.5c-2.36,0-3.85-1.26-3.85-3.07s1.08-3,4.18-3h3v-.38c0-1.59-.92-2.51-2.79-2.51a5.25,5.25,0,0,0-3.3,1.12l-.79-1.41a6.92,6.92,0,0,1,4.31-1.34C398.79,136.14,400.4,137.52,400.4,140.36Zm-1.88,3.11V142h-2.91c-1.86,0-2.39.73-2.39,1.61,0,1,.86,1.69,2.29,1.69A3,3,0,0,0,398.52,143.47Z"/><path class="cls-2" d="M410.54,146.65l-3-4-3.05,4h-2.1l4.11-5.32-3.91-5.09h2.1l2.87,3.75,2.84-3.75h2.06l-3.92,5.09,4.14,5.32Z"/><path class="cls-2" d="M420.31,132.9h2v13.75h-2Z"/><path class="cls-2" d="M440.44,143.21h-7.31l-1.51,3.44h-2l6.22-13.75h1.95L444,146.65H442Zm-.69-1.57-3-6.74-3,6.74Z"/><path class="cls-2" d="M455.29,136.24v10.41H453.5v-1.57a4.22,4.22,0,0,1-3.53,1.69c-2.69,0-4.48-1.48-4.48-4.54v-6h1.89V142c0,2.05,1,3.07,2.8,3.07,2,0,3.22-1.22,3.22-3.46v-5.38Z"/><path class="cls-2" d="M468.71,132.08v14.57H466.9V145a4.39,4.39,0,0,1-3.71,1.77,5.32,5.32,0,0,1,0-10.63,4.42,4.42,0,0,1,3.63,1.67v-5.73Zm-1.87,9.36a3.51,3.51,0,1,0-3.49,3.68A3.42,3.42,0,0,0,466.84,141.44Z"/><path class="cls-2" d="M472,133a1.24,1.24,0,0,1,1.28-1.24,1.22,1.22,0,0,1,1.27,1.2,1.28,1.28,0,0,1-2.55,0Zm.34,3.22h1.88v10.41h-1.88Z"/><path class="cls-2" d="M483.62,146a3.58,3.58,0,0,1-2.28.73,3,3,0,0,1-3.3-3.26v-5.72h-1.77v-1.55H478V134h1.89v2.28h3v1.55h-3v5.64a1.53,1.53,0,0,0,1.63,1.74,2.32,2.32,0,0,0,1.47-.49Z"/><path class="cls-2" d="M491.46,132.9h2v13.75h-2Z"/><path class="cls-2" d="M501.71,139.77a7,7,0,0,1,7.29-7,6.79,6.79,0,0,1,5.22,2.14L513,136.12a5.1,5.1,0,0,0-3.87-1.63,5.29,5.29,0,1,0,0,10.57,5.12,5.12,0,0,0,3.87-1.65l1.27,1.23A6.78,6.78,0,0,1,509,146.8,7,7,0,0,1,501.71,139.77Z"/><path class="cls-2" d="M515.37,141.44a5.41,5.41,0,1,1,5.42,5.33A5.17,5.17,0,0,1,515.37,141.44Zm8.91,0a3.51,3.51,0,1,0-7,0,3.51,3.51,0,1,0,7,0Z"/><path class="cls-2" d="M538.68,140.66v6H536.8v-5.78c0-2-1-3-2.81-3-2,0-3.3,1.2-3.3,3.46v5.36H528.8V136.24h1.81v1.57a4.47,4.47,0,0,1,3.75-1.67C536.89,136.14,538.68,137.59,538.68,140.66Z"/><path class="cls-2" d="M540.87,145.55l.78-1.49a6.75,6.75,0,0,0,3.65,1.08c1.75,0,2.48-.53,2.48-1.42,0-2.34-6.58-.31-6.58-4.46,0-1.86,1.67-3.12,4.34-3.12a7.57,7.57,0,0,1,3.79.94l-.81,1.5a5.41,5.41,0,0,0-3-.83c-1.65,0-2.46.61-2.46,1.43,0,2.46,6.6.46,6.6,4.5,0,1.89-1.73,3.09-4.49,3.09A7.47,7.47,0,0,1,540.87,145.55Z"/><path class="cls-2" d="M561.72,136.24v10.41h-1.78v-1.57a4.24,4.24,0,0,1-3.54,1.69c-2.69,0-4.48-1.48-4.48-4.54v-6h1.89V142c0,2.05,1,3.07,2.81,3.07,2,0,3.22-1.22,3.22-3.46v-5.38Z"/><path class="cls-2" d="M565.32,132.08h1.89v14.57h-1.89Z"/><path class="cls-2" d="M576.91,146a3.56,3.56,0,0,1-2.28.73,3,3,0,0,1-3.3-3.26v-5.72h-1.76v-1.55h1.76V134h1.89v2.28h3v1.55h-3v5.64a1.53,1.53,0,0,0,1.63,1.74,2.32,2.32,0,0,0,1.47-.49Z"/><path class="cls-2" d="M587.44,140.36v6.29h-1.79v-1.38a3.86,3.86,0,0,1-3.42,1.5c-2.35,0-3.85-1.26-3.85-3.07s1.08-3,4.19-3h3v-.38c0-1.59-.92-2.51-2.79-2.51a5.28,5.28,0,0,0-3.3,1.12l-.78-1.41a6.89,6.89,0,0,1,4.3-1.34C585.83,136.14,587.44,137.52,587.44,140.36Zm-1.89,3.11V142h-2.9c-1.87,0-2.4.73-2.4,1.61,0,1,.87,1.69,2.3,1.69A3,3,0,0,0,585.55,143.47Z"/><path class="cls-2" d="M600.82,140.66v6h-1.89v-5.78c0-2-1-3-2.81-3-2,0-3.3,1.2-3.3,3.46v5.36h-1.88V136.24h1.81v1.57a4.45,4.45,0,0,1,3.75-1.67C599,136.14,600.82,137.59,600.82,140.66Z"/><path class="cls-2" d="M603.41,141.44a5.2,5.2,0,0,1,5.5-5.3,4.64,4.64,0,0,1,4.24,2.22l-1.43.92a3.25,3.25,0,0,0-2.83-1.49,3.67,3.67,0,0,0,0,7.33,3.26,3.26,0,0,0,2.83-1.5l1.43.91a4.65,4.65,0,0,1-4.24,2.24A5.22,5.22,0,0,1,603.41,141.44Z"/><path class="cls-2" d="M624.67,136.24l-5,11.45c-.92,2.2-2.12,2.89-3.71,2.89a3.89,3.89,0,0,1-2.67-1l.8-1.41a2.67,2.67,0,0,0,1.87.76c.9,0,1.47-.41,2-1.61l.33-.72-4.59-10.39h2l3.64,8.33,3.59-8.33Z"/><polygon class="cls-1" points="0 150.57 85.43 0 90.06 0 101.81 19.93 36.66 140.96 126.72 141.68 135.27 150.57 0 150.57"/><polygon class="cls-2" points="51.26 133.49 108.22 33.1 175.85 150.57 144.17 150.57 102.99 74.04 71.91 133.37 51.26 133.49"/></g></g></svg>